# xmcd CD database file
#
# Track frame offsets:
#	150
#	45382
#	70050
#	99585
#	127939
#
# Disc length: 1998 seconds
#
# Revision: 0
# Processed by: cddbd v1.5.2PL0 Copyright (c) Steve Scherf et al.
# Submitted via: CDex 1.51
#
DISCID=3707cc05
DTITLE=Susanne Huehn - Wie dein Schutzengel dich fuehrt
DYEAR=2005
DGENRE=Kinder-Meditation
TTITLE0=Die Himmelskonferenz
TTITLE1=Mit Delphinen spielen
TTITLE2=Der weiﬂe Schutzmantel
TTITLE3=Der Baum
TTITLE4=Die Farbe deiner Freude
EXTD=YEAR: 2005
EXTT0=
EXTT1=
EXTT2=
EXTT3=
EXTT4=
PLAYORDER=
